<svg xmlns="http://www.w3.org/2000/svg" viewBox="0 0 500 500"><g id="freepik--bottle-of-water--inject-12"><path d="M304.37,271.52a18.87,18.87,0,0,0,9.69-15l6.76-82.35a30.46,30.46,0,0,0-8.09-23.3L291.9,128.56a12.13,12.13,0,0,1-3.21-9.24l1-12.06-53.91-4.42-1,12a12.1,12.1,0,0,1-4.67,8.6l-24.2,18.63a30.46,30.46,0,0,0-11.78,21.66l-6.77,82.35a18.87,18.87,0,0,0,7.11,16.36,18.84,18.84,0,0,0-9.68,15l-8.63,105a18.88,18.88,0,0,0,17.28,20.37l89,7.32a18.88,18.88,0,0,0,20.37-17.28l8.63-105A18.87,18.87,0,0,0,304.37,271.52Z" style="fill:#006635;opacity:0.30000000000000004"></path><rect x="257.68" y="82.66" width="9.33" height="54.08" transform="translate(131.53 362.19) rotate(-85.3)" style="fill:#006635;opacity:0.30000000000000004"></rect><path d="M312.23,153,291.4,130.69s-13.43.59-3,17.05C297.29,161.67,312.78,159.5,312.23,153Z" style="fill:#fff;opacity:0.30000000000000004"></path><path d="M176.17,382.45a18.88,18.88,0,0,0,17.28,20.37l89,7.32a18.89,18.89,0,0,0,20.37-17.28Z" style="fill:#006635;opacity:0.2"></path><path d="M308.34,155a24.52,24.52,0,0,1,6.5,18.72l-6.76,82.35a12.89,12.89,0,0,1-6.62,10.22l-7.87,4.36,7.05,5.59a12.89,12.89,0,0,1,4.86,11.17l-8.63,105A12.9,12.9,0,0,1,283,404.16l-89-7.32a12.91,12.91,0,0,1-11.79-13.9l8.63-105a12.86,12.86,0,0,1,6.61-10.22l7.87-4.37-7-5.58a12.89,12.89,0,0,1-4.86-11.17l6.77-82.35a24.51,24.51,0,0,1,9.47-17.4c8-5.17,29,7.7,53.59,9.72S303.2,152.36,308.34,155Z" style="fill:#006635;opacity:0.30000000000000004"></path><path d="M263.18,156.6c-24.58-2-45.6-14.91-53.6-9.73,14,7.7,30,12.46,53.21,14.37S308.34,155,308.34,155C303.2,152.36,287.76,158.62,263.18,156.6Z" style="fill:#006635;opacity:0.2"></path><path d="M187.37,246.13a18.87,18.87,0,0,0,7.11,16.36l109.89,9a18.87,18.87,0,0,0,9.69-15Z" style="fill:#006635;opacity:0.2"></path><path d="M297.4,105.13l-1-.08.65-7.93A6.6,6.6,0,0,0,291,90l-8.62-.71.08-1,8.62.7a7.61,7.61,0,0,1,6.94,8.19Z" style="fill:#006635"></path><path d="M294.68,115.1l-.69-.72a6.6,6.6,0,0,0,2-4.19l1,.09A7.59,7.59,0,0,1,294.68,115.1Z" style="fill:#006635"></path><rect x="232.02" y="90.26" width="62.11" height="21.3" rx="4.09" transform="translate(9.15 -21.21) rotate(4.7)" style="fill:#006635"></rect><path d="M238.06,107.31h0a.5.5,0,0,1-.46-.54L238.86,91a.51.51,0,0,1,.54-.46.5.5,0,0,1,.46.54l-1.3,15.81A.49.49,0,0,1,238.06,107.31Z" style="fill:#fff;opacity:0.2"></path><path d="M247.81,108.11h0a.5.5,0,0,1-.46-.54l1.3-15.81a.51.51,0,0,1,.54-.46.5.5,0,0,1,.45.54l-1.29,15.81A.5.5,0,0,1,247.81,108.11Z" style="fill:#fff;opacity:0.2"></path><path d="M257.55,108.91h0a.5.5,0,0,1-.46-.54l1.3-15.81a.52.52,0,0,1,.54-.46.51.51,0,0,1,.46.54l-1.3,15.82A.49.49,0,0,1,257.55,108.91Z" style="fill:#fff;opacity:0.2"></path><path d="M267.3,109.72h0a.5.5,0,0,1-.46-.54l1.3-15.81a.52.52,0,0,1,.54-.46.5.5,0,0,1,.45.54l-1.3,15.82A.5.5,0,0,1,267.3,109.72Z" style="fill:#fff;opacity:0.2"></path><path d="M277,110.52h0a.5.5,0,0,1-.46-.53l1.3-15.82a.54.54,0,0,1,.54-.46.51.51,0,0,1,.46.54l-1.3,15.82A.5.5,0,0,1,277,110.52Z" style="fill:#fff;opacity:0.2"></path><path d="M286.79,111.32h0a.51.51,0,0,1-.46-.54L287.59,95a.49.49,0,0,1,.54-.45.49.49,0,0,1,.45.53l-1.29,15.82A.52.52,0,0,1,286.79,111.32Z" style="fill:#fff;opacity:0.2"></path><path d="M204,218.63c-1.52-8.41-13.77-7.82-14.47.7l-2.2,26.8a18.87,18.87,0,0,0,7.11,16.36,18.84,18.84,0,0,0-9.68,15l-8.63,105a18.88,18.88,0,0,0,17.28,20.37l23,1.89a16.59,16.59,0,0,0,17.68-19.48Z" style="fill:#006635;opacity:0.2"></path><circle cx="282.75" cy="355.31" r="9.78" transform="translate(-162.71 267.23) rotate(-40.3)" style="fill:#006635;opacity:0.30000000000000004"></circle><path d="M261.41,318.24a6.92,6.92,0,1,1-6.33-7.46A6.91,6.91,0,0,1,261.41,318.24Z" style="fill:#006635;opacity:0.30000000000000004"></path><path d="M232.48,234a6.93,6.93,0,1,1,6.59-7.25A6.94,6.94,0,0,1,232.48,234Z" style="fill:#006635;opacity:0.30000000000000004"></path><path d="M251.35,192.59a4.9,4.9,0,1,1,4.65-5.13A4.91,4.91,0,0,1,251.35,192.59Z" style="fill:#006635;opacity:0.30000000000000004"></path><path d="M281.71,288.33a2.86,2.86,0,1,1-2.62-3.09A2.87,2.87,0,0,1,281.71,288.33Z" style="fill:#006635;opacity:0.30000000000000004"></path><path d="M229.91,366.57l-.48,0a5.81,5.81,0,0,1-4-2,5.74,5.74,0,0,1-1.35-4.22l.37,0-.37,0a5.79,5.79,0,1,1,5.78,6.27Zm0-10.84a5,5,0,0,0-3.84,8.31,5,5,0,0,0,3.43,1.76,5,5,0,1,0,.83-10.05Z" style="fill:#fff;opacity:0.7000000000000001"></path><path d="M291.76,249.55l-.35,0a4.21,4.21,0,0,1-3.85-4.53h0a4.21,4.21,0,1,1,4.2,4.55Zm-3.45-4.49a3.46,3.46,0,1,0,6.08-1.95A3.39,3.39,0,0,0,292,241.9a3.45,3.45,0,0,0-3.73,3.16Z" style="fill:#fff;opacity:0.7000000000000001"></path><path d="M227.15,160.89H227a2,2,0,0,1-1.8-2.11h0a2,2,0,1,1,2,2.12Zm-1.21-2.06a1.21,1.21,0,1,0,2.41.2,1.21,1.21,0,1,0-2.41-.2Z" style="fill:#fff;opacity:0.7000000000000001"></path><path d="M271.37,212.68l-.42,0a5,5,0,0,1-4.59-5.41h0a5,5,0,1,1,5,5.43Zm0-9.29a4.22,4.22,0,0,0-2.75,1,4.28,4.28,0,0,0-1.5,2.91h0a4.27,4.27,0,0,0,3.91,4.6,4.2,4.2,0,0,0,3.11-1,4.26,4.26,0,0,0,1.5-2.9,4.31,4.31,0,0,0-1-3.12,4.23,4.23,0,0,0-2.91-1.49Zm-4.62,3.89h0Z" style="fill:#fff;opacity:0.7000000000000001"></path><path d="M312.39,256.4l6.46-78.53a3.83,3.83,0,0,0-3.51-4.13h0a3.83,3.83,0,0,0-4.13,3.51l-6.46,78.53a15.86,15.86,0,0,1-8.15,12.6l-3.93,2.18,3.53,2.79a15.9,15.9,0,0,1,6,13.76l-8.63,105c-.52,6.3-4.48,9.37-10.05,11.82a1.75,1.75,0,0,0,.56,3.35h0a15.89,15.89,0,0,0,17.13-14.54l8.63-105a15.86,15.86,0,0,0-6-13.76l-3.53-2.79,3.93-2.19A15.83,15.83,0,0,0,312.39,256.4Z" style="fill:#fff;opacity:0.30000000000000004"></path></g></svg>