<?xml version="1.0" encoding="UTF-8"?>
<svg id="Layer_1" data-name="Layer 1" xmlns="http://www.w3.org/2000/svg" viewBox="0 0 4000 4000">
  <defs>
    <style>
      .cls-1 {
        fill: #006635;
      }

      .cls-2 {
        fill: none;
      }
    </style>
  </defs>
  <g>
    <path class="cls-1" d="m2801.78,1510.72c-45.24-45.24-107.74-73.22-176.78-73.22h-937.5c-233,0-432.9,141.66-518.3,343.55-4.16,9.83-8.04,19.8-11.64,29.9-9.82,27.52-17.55,56.03-23.01,85.34-6.27,33.61-9.55,68.28-9.55,103.71,0,49.96,6.52,98.41,18.75,144.53,4,15.1,8.61,29.95,13.81,44.52,77.66,217.67,285.61,373.45,529.94,373.45h500c17.26,0,32.88,7,44.2,18.3,11.3,11.32,18.3,26.94,18.3,44.2,0,34.52-27.98,62.5-62.5,62.5h-687.5l-41.17,3.37c-2.06.35-4.11.71-6.16,1.1l-38.63,10.7c-1.92.7-3.82,1.42-5.71,2.17h-.01c-1.89.75-3.77,1.52-5.64,2.3-1.86.8-3.72,1.61-5.57,2.44-12,5.43-23.49,11.77-34.39,18.94-1.67,1.11-3.33,2.23-4.98,3.37l-14.44,10.8c-1.56,1.25-3.1,2.53-4.63,3.82-5.35,4.52-10.5,9.26-15.45,14.21-4.95,4.95-9.69,10.1-14.21,15.45-1.29,1.53-2.57,3.07-3.82,4.63-3.77,4.68-7.37,9.5-10.8,14.44-1.14,1.65-2.26,3.31-3.37,4.98-7.17,10.9-13.51,22.39-18.94,34.39-.83,1.85-1.64,3.71-2.44,5.57-.78,1.87-1.55,3.75-2.3,5.64h0c-.75,1.9-1.47,3.8-2.17,5.72-4.56,12.45-8.15,25.35-10.7,38.63-.39,2.05-.75,4.1-1.1,6.16-2.22,13.39-3.37,27.15-3.37,41.17l3.37,41.17c.35,2.06.71,4.11,1.1,6.16l10.7,38.63c.7,1.92,1.42,3.82,2.17,5.71h0c.75,1.9,1.52,3.78,2.3,5.65.8,1.86,1.61,3.72,2.44,5.57,5.43,12,11.77,23.49,18.94,34.39,1.11,1.67,2.23,3.33,3.37,4.98l10.8,14.44c1.25,1.56,2.53,3.1,3.82,4.63,4.52,5.35,9.26,10.5,14.21,15.45,4.95,4.95,10.1,9.69,15.45,14.21,1.53,1.29,3.07,2.57,4.63,3.82,4.68,3.77,9.5,7.37,14.44,10.8,1.65,1.14,3.31,2.26,4.98,3.37,10.9,7.17,22.39,13.51,34.39,18.94,1.85.83,3.71,1.64,5.57,2.44,1.87.78,3.75,1.55,5.64,2.3h.01c1.89.75,3.79,1.47,5.71,2.17,12.45,4.56,25.35,8.15,38.63,10.7,2.05.39,4.1.75,6.16,1.1,13.39,2.22,27.15,3.37,41.17,3.37h687.5c244.33,0,452.28-155.78,529.94-373.45,21.08-59.08,32.56-122.73,32.56-189.05s-11.48-129.97-32.56-189.05c-3.6-10.1-7.48-20.07-11.64-29.9-85.4-201.89-285.3-343.55-518.3-343.55h-500c-34.52,0-62.5-27.98-62.5-62.5,0-17.26,7-32.88,18.3-44.2,11.32-11.3,26.94-18.3,44.2-18.3h937.5c69.04,0,131.54-27.98,176.78-73.22,19.75-19.75,36.21-42.8,48.49-68.23,15.85-32.83,24.73-69.65,24.73-108.55,0-48.89-14.03-94.51-38.29-133.03-10-15.88-21.73-30.55-34.93-43.75Z"/>
    <path class="cls-1" d="m2875,1062.5h-625c0-138.07-111.93-250-250-250h0c-138.07,0-250,111.93-250,250h0s-625,0-625,0c-69.04,0-125,55.96-125,125h0c0,69.04,55.96,125,125,125h1750c69.04,0,125-55.96,125-125h0c0-69.04-55.96-125-125-125Z"/>
  </g>
  <rect class="cls-2" width="4000" height="4000"/>
</svg>